<svg viewBox="0 0 120 120" xmlns="http://www.w3.org/2000/svg">
  <title>A tile’s explanation filling the screen, a finger swiping to the next tile’s.</title>
  <rect class="ln" x="34" y="4" width="52" height="112" rx="9"/>
  <rect class="fill" x="54" y="8" width="12" height="3" rx="1.5"/>
  <line class="ln bold" x1="52" y1="18" x2="68" y2="18"/>
  <circle class="ln" cx="77" cy="18" r="3"/>
  <line class="ln" x1="75.8" y1="16.8" x2="78.2" y2="19.2"/>
  <line class="ln" x1="78.2" y1="16.8" x2="75.8" y2="19.2"/>
  <circle class="soft" cx="46" cy="28" r="4.3"/>
  <circle class="ln" cx="46" cy="28" r="4.3"/>
  <circle class="ln" cx="56.5" cy="28" r="3.4"/>
  <circle class="ln" cx="65.5" cy="28" r="3.4"/>
  <circle class="ln" cx="74.5" cy="28" r="3.4"/>
  <line class="ln faint" x1="40" y1="38" x2="80" y2="38"/>
  <line class="ln faint" x1="40" y1="45" x2="74" y2="45"/>
  <line class="ln faint" x1="40" y1="52" x2="68" y2="52"/>
  <line class="ln faint" x1="40" y1="59" x2="80" y2="59"/>
  <line class="ln faint" x1="40" y1="66" x2="74" y2="66"/>
  <circle class="fill" cx="74" cy="84" r="2.2"/>
  <circle class="ln" cx="74" cy="84" r="7"/>
  <line class="ln" x1="74" y1="84" x2="46" y2="84"/>
  <path class="ln" d="M50.39 86.4 L46 84 L50.39 81.6"/>
</svg>
