<svg viewBox="0 0 120 120" xmlns="http://www.w3.org/2000/svg">
  <title>A price being tapped, to open the card on TCGplayer.</title>
  <rect class="soft" x="4" y="20" width="34" height="14" rx="7"/>
  <rect class="ln" x="4" y="20" width="34" height="14" rx="7"/>
  <text class="t" x="21" y="27.3" font-size="8.5" text-anchor="middle" dominant-baseline="central" font-weight="600">$2.40</text>
  <circle class="fill" cx="9" cy="41" r="1.8"/>
  <text class="t" x="13" y="41.3" font-size="6.5" text-anchor="start" dominant-baseline="central">Regular</text>
  <rect class="soft" x="43" y="20" width="34" height="14" rx="7"/>
  <rect class="ln" x="43" y="20" width="34" height="14" rx="7"/>
  <text class="t" x="60" y="27.3" font-size="8.5" text-anchor="middle" dominant-baseline="central" font-weight="600">$6.10</text>
  <circle class="ln" cx="48" cy="41" r="1.8"/>
  <text class="t" x="52" y="41.3" font-size="6.5" text-anchor="start" dominant-baseline="central">Foil</text>
  <rect class="soft" x="82" y="20" width="34" height="14" rx="7"/>
  <rect class="ln" x="82" y="20" width="34" height="14" rx="7"/>
  <text class="t" x="99" y="27.3" font-size="8.5" text-anchor="middle" dominant-baseline="central" font-weight="600">$9.80</text>
  <circle class="soft" cx="87" cy="41" r="1.8"/>
  <text class="t" x="91" y="41.3" font-size="6.5" text-anchor="start" dominant-baseline="central">Etched</text>
  <circle class="fill" cx="37" cy="33" r="2.2"/>
  <circle class="ln" cx="37" cy="33" r="7"/>
  <path class="ln dash" d="M24 50 Q30 76 50 80"/>
  <path class="ln" d="M46.55 77.11 L50 80 L45.7 81.34"/>
  <rect class="ln" x="54" y="62" width="60" height="46" rx="5"/>
  <line class="ln" x1="54" y1="71" x2="114" y2="71"/>
  <circle class="ln" cx="59" cy="66.5" r="1.2"/>
  <circle class="ln" cx="63.5" cy="66.5" r="1.2"/>
  <rect class="ln" x="60" y="76" width="20" height="28" rx="1.5"/>
  <line class="ln" x1="86" y1="80" x2="108" y2="80"/>
  <line class="ln faint" x1="86" y1="87" x2="102" y2="87"/>
  <rect class="soft" x="86" y="94" width="20" height="7" rx="3.5"/>
</svg>
