<svg viewBox="0 0 120 120" xmlns="http://www.w3.org/2000/svg">
  <title>Prints: the card’s other printings in a row, a finger swiping through them.</title>
  <text class="t" x="6" y="12" font-size="9" text-anchor="start" dominant-baseline="central" font-weight="600">Prints</text>
  <text class="t" x="6" y="22" font-size="6.5" text-anchor="start" dominant-baseline="central" fill-opacity="0.55">12 Results</text>
  <rect class="ln" x="6" y="30" width="34" height="47.49" rx="2.43"/>
  <rect class="ln faint" x="9.4" y="35.7" width="27.2" height="18.05" rx="1"/>
  <line class="ln faint" x1="9.4" y1="59.45" x2="36.6" y2="59.45"/>
  <line class="ln faint" x1="9.4" y1="64.19" x2="31.5" y2="64.19"/>
  <line class="ln faint" x1="9.4" y1="68.94" x2="33.88" y2="68.94"/>
  <rect class="ln" x="44" y="30" width="34" height="47.49" rx="2.43"/>
  <rect class="ln faint" x="47.4" y="35.7" width="27.2" height="18.05" rx="1"/>
  <line class="ln faint" x1="47.4" y1="59.45" x2="74.6" y2="59.45"/>
  <line class="ln faint" x1="47.4" y1="64.19" x2="69.5" y2="64.19"/>
  <line class="ln faint" x1="47.4" y1="68.94" x2="71.88" y2="68.94"/>
  <rect class="ln" x="82" y="30" width="34" height="47.49" rx="2.43"/>
  <rect class="ln faint" x="85.4" y="35.7" width="27.2" height="18.05" rx="1"/>
  <line class="ln faint" x1="85.4" y1="59.45" x2="112.6" y2="59.45"/>
  <line class="ln faint" x1="85.4" y1="64.19" x2="107.5" y2="64.19"/>
  <line class="ln faint" x1="85.4" y1="68.94" x2="109.88" y2="68.94"/>
  <circle class="fill" cx="96" cy="96" r="2.2"/>
  <circle class="ln" cx="96" cy="96" r="7"/>
  <line class="ln" x1="96" y1="96" x2="40" y2="96"/>
  <path class="ln" d="M44.39 98.4 L40 96 L44.39 93.6"/>
</svg>
