<svg viewBox="0 0 120 120" xmlns="http://www.w3.org/2000/svg">
  <title>A row of tiles under the card; one being tapped.</title>
  <rect class="ln" x="34" y="4" width="52" height="112" rx="9"/>
  <rect class="fill" x="54" y="8" width="12" height="3" rx="1.5"/>
  <rect class="ln" x="46" y="16" width="28" height="39.11" rx="2"/>
  <rect class="ln faint" x="48.8" y="20.69" width="22.4" height="14.86" rx="1"/>
  <line class="ln faint" x1="48.8" y1="40.25" x2="71.2" y2="40.25"/>
  <line class="ln faint" x1="48.8" y1="44.16" x2="67" y2="44.16"/>
  <line class="ln faint" x1="48.8" y1="48.07" x2="68.96" y2="48.07"/>
  <line class="ln" x1="40" y1="61" x2="64" y2="61"/>
  <line class="ln faint" x1="40" y1="66" x2="58" y2="66"/>
  <line class="ln faint" x1="40" y1="71" x2="76" y2="71"/>
  <line class="ln bold" x1="40" y1="78" x2="52" y2="78"/>
  <rect class="ln" x="40" y="82" width="9" height="9" rx="2.2"/>
  <line class="ln faint" x1="41.5" y1="94" x2="47.5" y2="94"/>
  <rect class="ln" x="50.5" y="82" width="9" height="9" rx="2.2"/>
  <line class="ln faint" x1="52" y1="94" x2="58" y2="94"/>
  <rect class="ln" x="61" y="82" width="9" height="9" rx="2.2"/>
  <line class="ln faint" x1="62.5" y1="94" x2="68.5" y2="94"/>
  <rect class="ln" x="71.5" y="82" width="9" height="9" rx="2.2"/>
  <line class="ln faint" x1="73" y1="94" x2="79" y2="94"/>
  <line class="ln" x1="40.5" y1="101.6" x2="45.5" y2="101.6"/>
  <line class="ln" x1="40.5" y1="104" x2="45.5" y2="104"/>
  <line class="ln" x1="40.5" y1="106.4" x2="45.5" y2="106.4"/>
  <rect class="ln" x="49" y="100" width="32" height="8" rx="4"/>
  <rect class="ln" x="51" y="102.8" width="3" height="2.4" rx="0.4"/>
  <rect class="ln" x="55" y="102.8" width="3" height="2.4" rx="0.4"/>
  <rect class="ln" x="71" y="102.8" width="3" height="2.4" rx="0.4"/>
  <rect class="ln" x="75" y="102.8" width="3" height="2.4" rx="0.4"/>
  <circle class="ln" cx="64.5" cy="104" r="3.3"/>
  <rect class="fill" x="62.7" y="102.7" width="3.6" height="2.6" rx="0.4"/>
  <circle class="fill" cx="65.5" cy="86.5" r="2.2"/>
  <circle class="ln" cx="65.5" cy="86.5" r="7"/>
</svg>
